<?xml version="1.0" standalone="no"?>
<!DOCTYPE svg PUBLIC "-//W3C//DTD SVG 20010904//EN"
 "http://www.w3.org/TR/2001/REC-SVG-20010904/DTD/svg10.dtd">
<svg version="1.0" xmlns="http://www.w3.org/2000/svg"
 width="70.000000pt" height="70.000000pt" viewBox="0 0 70.000000 70.000000"
 preserveAspectRatio="xMidYMid meet">
<metadata>
Created by potrace 1.14, written by Peter Selinger 2001-2017
</metadata>
<g transform="translate(0.000000,70.000000) scale(0.100000,-0.100000)"
fill="#000000" stroke="none">
<path d="M350 661 c0 -4 -6 -8 -12 -9 -30 -2 -113 -30 -94 -31 5 -1 1 -9 -8
-20 -9 -10 -16 -25 -14 -32 2 -8 -3 -13 -10 -11 -8 1 -11 -2 -7 -8 4 -6 3 -16
-2 -23 -5 -7 -8 -38 -8 -69 0 -32 -3 -58 -7 -58 -5 0 -8 -6 -8 -14 0 -13 -46
-40 -80 -48 -8 -2 -23 -14 -34 -27 -16 -19 -19 -38 -19 -105 1 -126 2 -138 13
-131 5 3 10 2 10 -2 0 -13 40 -11 40 2 0 5 5 2 11 -8 8 -14 14 -15 24 -7 15
12 36 10 47 -5 5 -6 8 -6 8 2 0 6 9 11 20 10 11 -1 20 -5 20 -9 0 -4 17 4 38
18 20 14 36 30 35 35 -3 9 29 0 37 -12 10 -14 76 -35 108 -33 18 0 32 -4 32
-10 0 -7 3 -7 8 -1 10 14 32 17 32 4 0 -8 4 -8 13 -1 15 13 29 13 45 0 8 -7
12 -7 12 0 0 6 7 9 15 6 17 -7 16 -12 20 116 2 62 -1 100 -8 110 -14 19 -89
66 -99 63 -14 -5 -37 42 -40 80 -1 20 -6 37 -11 37 -5 0 -7 9 -4 20 3 11 1 20
-4 20 -5 0 -9 5 -9 11 0 5 6 7 13 3 8 -5 8 -2 -2 9 -11 14 -11 17 0 17 9 0 10
3 4 8 -5 4 -11 13 -13 20 -4 23 -34 62 -46 62 -6 0 -23 7 -38 14 -16 8 -28 11
-28 7z"/>
</g>
</svg>
